<?xml version="1.0" encoding="utf-8"?>
<!-- Generator: Adobe Illustrator 25.1.0, SVG Export Plug-In . SVG Version: 6.00 Build 0)  -->
<svg version="1.1" xmlns="http://www.w3.org/2000/svg" xmlns:xlink="http://www.w3.org/1999/xlink" x="0px" y="0px"
	 viewBox="0 0 32 32" style="enable-background:new 0 0 32 32;" xml:space="preserve">
<style type="text/css">
	.st0{fill:#A14D98;}
	.st1{fill:#6469AF;}
	.st2{fill:#4A93D0;}
	.st3{fill:#2F67AF;}
	.st4{fill:url(#SVGID_1_);}
	.st5{fill:url(#SVGID_2_);}
	.st6{fill:url(#SVGID_3_);}
	.st7{fill:url(#SVGID_4_);}
	.st8{fill:url(#SVGID_5_);}
	.st9{fill:url(#SVGID_6_);}
	.st10{fill:url(#SVGID_7_);}
	.st11{fill:url(#SVGID_8_);}
	.st12{fill:url(#SVGID_9_);}
	.st13{fill:url(#SVGID_10_);}
	.st14{fill:url(#SVGID_11_);}
	.st15{fill:url(#SVGID_12_);}
	.st16{fill:#FFFFFF;}
	.st17{fill:#D7256D;}
	.st18{fill:url(#SVGID_13_);}
	.st19{fill:url(#SVGID_14_);}
	.st20{fill:url(#SVGID_15_);}
	.st21{fill:url(#SVGID_16_);}
	.st22{fill:url(#SVGID_17_);}
	.st23{fill:url(#SVGID_18_);}
	.st24{fill:url(#SVGID_19_);}
	.st25{fill:url(#SVGID_20_);}
	.st26{fill:url(#SVGID_21_);}
</style>
<g id="Layer_1">
</g>
<g id="Layer_2">
</g>
<g id="Layer_3">
</g>
<g id="Layer_4">
	<g>
		<linearGradient id="SVGID_1_" gradientUnits="userSpaceOnUse" x1="1.0447" y1="16.0165" x2="3.7218" y2="16.0165">
			<stop  offset="2.717173e-07" style="stop-color:#DC226A"/>
			<stop  offset="1" style="stop-color:#38AEE4"/>
		</linearGradient>
		<path class="st4" d="M2.95,15.91c0.35-0.19,0.53-0.48,0.53-0.88c0-0.35-0.14-0.62-0.42-0.82c-0.28-0.19-0.7-0.29-1.25-0.29H1.04
			v4.19h1c0.56,0,0.98-0.1,1.26-0.31c0.28-0.21,0.42-0.49,0.42-0.85C3.72,16.44,3.47,16.09,2.95,15.91z M3.41,17.43
			c-0.08,0.14-0.2,0.24-0.35,0.31c-0.15,0.07-0.31,0.12-0.47,0.15c-0.16,0.03-0.34,0.05-0.54,0.05H1.23V14.1h0.58
			c0.99,0,1.48,0.31,1.48,0.93c0,0.33-0.14,0.57-0.43,0.72l-0.35,0.19l0.38,0.13c0.43,0.15,0.65,0.44,0.65,0.87
			C3.53,17.13,3.49,17.29,3.41,17.43z"/>
		<linearGradient id="SVGID_2_" gradientUnits="userSpaceOnUse" x1="7.5537" y1="16.3464" x2="10.6979" y2="16.3464">
			<stop  offset="2.717173e-07" style="stop-color:#DC226A"/>
			<stop  offset="1" style="stop-color:#38AEE4"/>
		</linearGradient>
		<polygon class="st5" points="7.55,18.11 7.75,18.11 9.13,15.04 10.42,17.93 8.36,17.93 8.36,18.11 10.7,18.11 9.13,14.58 		"/>
		<linearGradient id="SVGID_3_" gradientUnits="userSpaceOnUse" x1="10.5379" y1="16.3756" x2="13.3688" y2="16.3756">
			<stop  offset="2.717173e-07" style="stop-color:#DC226A"/>
			<stop  offset="1" style="stop-color:#38AEE4"/>
		</linearGradient>
		<polygon class="st6" points="10.54,14.82 11.86,14.82 11.86,18.11 12.05,18.11 12.05,14.82 13.37,14.82 13.37,14.64 10.54,14.64 
					"/>
		<linearGradient id="SVGID_4_" gradientUnits="userSpaceOnUse" x1="13.8875" y1="16.38" x2="16.4208" y2="16.38">
			<stop  offset="2.717173e-07" style="stop-color:#DC226A"/>
			<stop  offset="1" style="stop-color:#38AEE4"/>
		</linearGradient>
		<path class="st7" d="M15.6,16.4c-0.23-0.07-0.46-0.13-0.69-0.19c-0.23-0.06-0.42-0.15-0.58-0.26c-0.16-0.11-0.24-0.27-0.24-0.46
			c0-0.49,0.33-0.74,0.98-0.74c0.44,0,0.75,0.09,0.95,0.28l0.13-0.13c-0.22-0.22-0.59-0.33-1.11-0.33c-0.33,0-0.61,0.07-0.82,0.22
			c-0.22,0.15-0.32,0.38-0.32,0.68c0,0.23,0.08,0.41,0.24,0.55c0.16,0.14,0.35,0.24,0.58,0.31c0.23,0.07,0.46,0.13,0.68,0.19
			c0.23,0.06,0.42,0.15,0.58,0.28c0.16,0.12,0.24,0.28,0.24,0.48c0,0.19-0.1,0.36-0.31,0.5c-0.21,0.14-0.51,0.21-0.92,0.21
			c-0.45,0-0.78-0.09-0.99-0.28l-0.13,0.13c0.1,0.11,0.26,0.19,0.48,0.25c0.22,0.06,0.44,0.08,0.66,0.08c0.45,0,0.8-0.08,1.04-0.25
			c0.24-0.16,0.36-0.38,0.36-0.66c0-0.23-0.08-0.42-0.24-0.57C16.02,16.57,15.83,16.46,15.6,16.4z"/>
		<linearGradient id="SVGID_5_" gradientUnits="userSpaceOnUse" x1="16.7584" y1="16.0194" x2="21.5941" y2="16.0194">
			<stop  offset="2.717173e-07" style="stop-color:#DC226A"/>
			<stop  offset="1" style="stop-color:#38AEE4"/>
		</linearGradient>
		<polygon class="st8" points="17.39,13.92 17.39,14.1 21.32,14.1 19.99,17.59 19.17,15.46 18.36,17.59 16.96,13.92 16.76,13.92 
			18.36,18.12 19.17,15.99 19.99,18.12 21.59,13.92 		"/>
		<linearGradient id="SVGID_6_" gradientUnits="userSpaceOnUse" x1="21.4592" y1="16.3464" x2="24.6033" y2="16.3464">
			<stop  offset="2.717173e-07" style="stop-color:#DC226A"/>
			<stop  offset="1" style="stop-color:#38AEE4"/>
		</linearGradient>
		<polygon class="st9" points="21.46,18.11 21.66,18.11 23.03,15.04 24.32,17.93 22.27,17.93 22.27,18.11 24.6,18.11 23.03,14.58 		
			"/>
		<linearGradient id="SVGID_7_" gradientUnits="userSpaceOnUse" x1="24.5817" y1="16.4047" x2="27.7258" y2="16.4047">
			<stop  offset="2.717173e-07" style="stop-color:#DC226A"/>
			<stop  offset="1" style="stop-color:#38AEE4"/>
		</linearGradient>
		<polygon class="st10" points="26.15,17.71 24.78,14.64 24.58,14.64 26.15,18.17 27.73,14.64 27.52,14.64 		"/>
		<linearGradient id="SVGID_8_" gradientUnits="userSpaceOnUse" x1="28.2753" y1="16.3756" x2="30.9553" y2="16.3756">
			<stop  offset="2.717173e-07" style="stop-color:#DC226A"/>
			<stop  offset="1" style="stop-color:#38AEE4"/>
		</linearGradient>
		<path class="st11" d="M29.74,17.99c-0.21,0-0.39-0.02-0.53-0.06s-0.27-0.12-0.39-0.23c-0.12-0.11-0.21-0.28-0.27-0.5
			s-0.09-0.49-0.09-0.82c0-0.33,0.03-0.6,0.09-0.82s0.15-0.38,0.27-0.5c0.12-0.11,0.25-0.19,0.39-0.23
			c0.14-0.04,0.32-0.06,0.53-0.06c0.48,0,0.8,0.12,0.99,0.35l-1.6,1.36l0.11,0.09l1.71-1.46l-0.08-0.11l0,0
			c-0.23-0.27-0.61-0.41-1.13-0.41c-0.52,0-0.9,0.14-1.13,0.42c-0.23,0.28-0.34,0.74-0.34,1.37c0,0.63,0.11,1.09,0.34,1.37
			c0.23,0.28,0.6,0.42,1.12,0.42c0.52,0,0.9-0.14,1.13-0.41l-0.14-0.12C30.55,17.87,30.22,17.99,29.74,17.99z"/>
		<linearGradient id="SVGID_9_" gradientUnits="userSpaceOnUse" x1="4.4987" y1="16.3756" x2="7.1773" y2="16.3756">
			<stop  offset="2.717173e-07" style="stop-color:#DC226A"/>
			<stop  offset="1" style="stop-color:#38AEE4"/>
		</linearGradient>
		<path class="st12" d="M5.47,16.56l1.71-1.46L7.1,15l0,0c-0.23-0.27-0.61-0.41-1.13-0.41c-0.52,0-0.9,0.14-1.13,0.42
			c-0.23,0.28-0.34,0.74-0.34,1.37c0,0.63,0.11,1.09,0.34,1.37c0.23,0.28,0.6,0.42,1.12,0.42c0.52,0,0.9-0.14,1.13-0.41l-0.14-0.12
			c-0.18,0.24-0.51,0.35-0.99,0.35c-0.21,0-0.39-0.02-0.53-0.06c-0.14-0.04-0.27-0.12-0.39-0.23c-0.12-0.11-0.21-0.28-0.27-0.5
			s-0.09-0.49-0.09-0.82c0-0.33,0.03-0.6,0.09-0.82s0.15-0.38,0.27-0.5c0.12-0.11,0.25-0.19,0.39-0.23
			c0.14-0.04,0.32-0.06,0.53-0.06c0.47,0,0.8,0.12,0.99,0.35l-1.6,1.36L5.47,16.56z"/>
	</g>
</g>
<g id="Layer_5">
</g>
</svg>
