<?xml version="1.0" encoding="utf-8"?>
<!-- Generator: Adobe Illustrator 16.0.0, SVG Export Plug-In . SVG Version: 6.00 Build 0)  -->
<!DOCTYPE svg PUBLIC "-//W3C//DTD SVG 1.1//EN" "http://www.w3.org/Graphics/SVG/1.1/DTD/svg11.dtd">
<svg version="1.1" id="Layer_1" xmlns="http://www.w3.org/2000/svg" xmlns:xlink="http://www.w3.org/1999/xlink" x="0px" y="0px"
	 width="120px" height="120px" viewBox="0 0 120 120" enable-background="new 0 0 120 120" xml:space="preserve">
<g>
	<ellipse opacity="0.5" fill="#C5C5C5" cx="59.658" cy="112.161" rx="36.176" ry="7.839"/>
	<g>
		<g>
			<g>
				<g>
					<path fill="#FFCC81" d="M46.89,107.818L46.89,107.818c-0.742,0-1.35-0.607-1.35-1.35V76.672c0-0.743,0.607-1.35,1.35-1.35l0,0
						c0.742,0,1.349,0.606,1.349,1.35v29.797C48.239,107.211,47.632,107.818,46.89,107.818z"/>
					<path fill="#FFCC81" d="M73.668,107.818L73.668,107.818c-0.742,0-1.35-0.607-1.35-1.35V76.672c0-0.743,0.607-1.35,1.35-1.35
						l0,0c0.742,0,1.35,0.606,1.35,1.35v29.797C75.018,107.211,74.41,107.818,73.668,107.818z"/>
					<path opacity="0.1" fill="#1C1C1B" d="M46.89,107.818L46.89,107.818c-0.742,0-1.35-0.607-1.35-1.35V76.672
						c0-0.743,0.607-1.35,1.35-1.35l0,0c0.742,0,1.349,0.606,1.349,1.35v29.797C48.239,107.211,47.632,107.818,46.89,107.818z"/>
					<path opacity="0.1" fill="#1C1C1B" d="M73.668,107.818L73.668,107.818c-0.742,0-1.35-0.607-1.35-1.35V76.672
						c0-0.743,0.607-1.35,1.35-1.35l0,0c0.742,0,1.35,0.606,1.35,1.35v29.797C75.018,107.211,74.41,107.818,73.668,107.818z"/>
				</g>
				<path fill="#FFCC81" d="M44.195,114.619L44.195,114.619c-0.86,0-1.564-0.704-1.564-1.564V78.511
					c0-0.861,0.704-1.565,1.564-1.565l0,0c0.861,0,1.565,0.704,1.565,1.565v34.544C45.76,113.915,45.057,114.619,44.195,114.619z"/>
				<path fill="#FFCC81" d="M76.558,114.619L76.558,114.619c-0.86,0-1.564-0.704-1.564-1.564V78.511
					c0-0.861,0.704-1.565,1.564-1.565l0,0c0.861,0,1.565,0.704,1.565,1.565v34.544C78.123,113.915,77.419,114.619,76.558,114.619z"
					/>
			</g>
			<path fill="#FF8C8C" d="M75.209,84.474H44.5c-2.854,0-5.19-2.336-5.19-5.19l0,0c0-2.854,2.336-5.19,5.19-5.19h30.708
				c2.854,0,5.19,2.336,5.19,5.19l0,0C80.399,82.138,78.063,84.474,75.209,84.474z"/>
			<path fill="#FF8C8C" d="M40.234,31.404c6.4-4.958,31.494-6.025,38.671-2.435c7.178,3.59-2.281,45.808-2.281,45.808H42.925
				C42.925,74.777,32.945,37.052,40.234,31.404z"/>
		</g>
		<g>
			<polygon fill="#7E4E24" points="54.553,108.801 55.014,111.104 47.872,117.785 59.489,112.701 59.226,108.801 			"/>
			<polygon fill="#7E4E24" points="66.684,108.801 66.223,111.104 73.363,117.785 61.747,112.624 62.011,108.801 			"/>
			<g>
				<path fill="#72BFE3" d="M60.496,62.872c2.755,0,12.499-0.607,14.087,5.724c1.59,6.33,1.975,10.096-0.771,12.019
					c-4.276,2.995-10.736-3-12.644-3c-1.907,0-11.02,6.129-13.86,3.024c-1.97-2.155-2.634-6.577-1.142-11.263
					C48.102,63.298,55.398,62.872,60.496,62.872z"/>
				<path fill="#53E8D0" d="M48.914,52.57c0,0-1.9,13.845-2.624,15.293c-0.724,1.447-1.654,4.948-1.287,6.317
					c0.821,3.071,11.053-1.703,16.029-1.341c4.977,0.361,12.405,1.267,13.581,0.995s1.357-3.981,0.452-5.429
					c-0.904-1.448-3.528-15.836-3.528-15.836H48.914z"/>
			</g>
			<path fill="#7E4E24" d="M65.44,3.465c0,0,5.474,0.146,7.545,4.632s0.429,12.159,1.916,15.627
				c3.555,8.289,14.453,36.683-14.892,35.898c-29.346-0.784-16.165-23.438-16.027-28.58c0.137-5.141-3.004-7.897-2.859-13.323
				c0.145-5.427,3.157-8.533,4.507-10.926C46.981,4.401,53.52-4.998,65.44,3.465z"/>
			<path fill="#FFCC81" d="M56.416,28.611c0,0,0.795,5.624,0.978,6.785c0,0,2.629,0.856,4.279,0l-0.306-6.785H56.416z"/>
			<path opacity="0.05" fill="#1C1C1B" d="M56.416,28.611c0,0,0.795,5.624,0.978,6.785c0,0,2.629,0.856,4.279,0l-0.306-6.785H56.416
				z"/>
			<g>
				<path fill="#FFCC81" d="M64.483,23.335c0.185,1.662,1.492,2.846,3.184,2.245c1.875-0.667,4.033-4.706,1.726-6.664
					C67.41,17.235,64.012,19.096,64.483,23.335z"/>
				<path fill="#FFCC81" d="M52.314,23.335c-0.185,1.662-1.492,2.846-3.183,2.245c-1.875-0.667-4.034-4.706-1.726-6.664
					C49.388,17.235,52.786,19.096,52.314,23.335z"/>
				<path opacity="0.05" fill="#1C1C1B" d="M64.483,23.335c0.185,1.662,1.492,2.846,3.184,2.245
					c1.875-0.667,4.033-4.706,1.726-6.664C67.41,17.235,64.012,19.096,64.483,23.335z"/>
				<path opacity="0.05" fill="#1C1C1B" d="M52.314,23.335c-0.185,1.662-1.492,2.846-3.183,2.245
					c-1.875-0.667-4.034-4.706-1.726-6.664C49.388,17.235,52.786,19.096,52.314,23.335z"/>
				<path fill="#FFCC81" d="M58.504,4.474c7.662,0,9.872,5.927,9.872,13.024c0,7.121-3.647,13.452-9.19,13.452
					c-5.624,0-9.778-6.391-10.454-11.753C47.429,8.845,52.751,4.474,58.504,4.474z"/>
				<path fill="#7E4E24" d="M62.008,8.315c0,0-5.13,6.233-12.227,8.899c-0.56,0.21,0.494,5.349,0.208,5.32
					c-0.343-0.035-1.988-3.604-1.985-6.012c0,0-0.453-4.479,1.182-7.475c1.635-2.995,6.403-7.132,13.127-4.575
					c0,0,7.529,1.414,6.357,11.983c0,0-0.771,5.232-0.954,5.232c-0.988,0-0.498-5.71-0.675-5.787
					C65.807,15.366,63.85,13.931,62.008,8.315z"/>
			</g>
			<g>
				<path fill="#72BFE3" d="M68.377,68.871c-3.711-0.513-7.656,2.977-7.932,9.562c-0.461,11.034,0.186,31.545,0.186,31.545
					s3.818,2.037,6.324-0.051c0,0,6.8-23.396,6.866-29.632S72.014,69.374,68.377,68.871z"/>
				<path fill="#72BFE3" d="M52.799,68.863c3.713-0.495,7.642,3.014,7.885,9.601c0.408,11.036-0.34,31.543-0.34,31.543
					s-3.829,2.019-6.324-0.081c0,0-6.686-23.428-6.721-29.665C47.263,74.023,49.159,69.348,52.799,68.863z"/>
			</g>
			<g>
				<path fill="#53E8D0" d="M53.688,34.02c-0.409,0.502,1.086,3.077,1.086,3.077s-4.027,0.633-5.068,1.629
					c-1.041,0.995-8.484,15.58-8.824,16.394c-0.339,0.815-2.918,3.598-2.85,5.091c0.068,1.492,2.328,3.479,3.685,4.227
					c1.358,0.746,4.188,0.776,5.252,1.319c1.063,0.542,4.568,1.338,6.401,0.998c1.833-0.339,2.036-2.782,2.036-2.782h9.569
					c0,0,1.086,2.708,1.968,2.848c0.883,0.139,10.152-1.78,13.848-6.649c1.584-2.086-1.877-6.134-2.081-6.701
					c-0.203-0.566-7.423-13.929-9.595-15.219s-5.016-1.697-5.016-1.697s0.943-2.089,0.604-2.945
					C64.365,32.753,55.362,31.961,53.688,34.02z"/>
				<g opacity="0.1">
					<path fill="#1C1C1B" d="M51.538,44.358c0,0-0.018,0.409-0.081,1.121c-0.084,0.708-0.135,1.732-0.338,2.944
						c-0.098,0.609-0.167,1.258-0.361,1.98c-0.162,0.757-0.391,1.375-0.442,2.074c-0.083,0.735-0.063,1.509-0.192,2.369
						c-0.015,0.195-0.11,0.485-0.181,0.693c-0.09,0.197-0.157,0.37-0.163,0.447c-0.005,0.13-0.037-0.054,0.003,0.016
						c0.049,0.038,0.24,0.076,0.396,0.102c0.709,0.114,1.491-0.009,2.316-0.051c0.814-0.049,1.655-0.062,2.488,0.175
						c0.408,0.125,0.833,0.304,1.148,0.634c0.163,0.165,0.286,0.312,0.408,0.548l0.11,0.244c0.033,0.096,0.059,0.211,0.085,0.315
						c0.167,0.816,0.06,1.477-0.034,2.104c-0.211,1.237-0.6,2.194-0.845,2.866c-0.263,0.667-0.45,1.032-0.45,1.032
						s0.096-0.396,0.264-1.09c0.167-0.689,0.359-1.694,0.473-2.88c0.048-0.578,0.062-1.266-0.104-1.814
						c-0.022-0.063-0.032-0.122-0.06-0.191l-0.13-0.234c-0.047-0.075-0.167-0.214-0.271-0.294c-0.215-0.188-0.505-0.311-0.826-0.39
						c-0.647-0.165-1.413-0.113-2.19-0.062c-0.77,0.045-1.619,0.205-2.53,0.077c-0.239-0.052-0.463-0.068-0.765-0.246
						c-0.125-0.043-0.32-0.26-0.4-0.433c-0.037-0.103-0.063-0.213-0.079-0.319c-0.001-0.089,0.011-0.167,0.02-0.251
						c0.019-0.176,0.076-0.271,0.116-0.408l0.125-0.284c0.054-0.175,0.098-0.265,0.124-0.471c0.115-0.724,0.158-1.535,0.271-2.313
						c0.085-0.832,0.459-1.583,0.623-2.187c0.226-0.616,0.357-1.278,0.502-1.865C51.151,45.941,51.538,44.358,51.538,44.358z"/>
				</g>
				<g opacity="0.1">
					<path fill="#1C1C1B" d="M64.977,63.972c0,0-0.131-0.409-0.32-1.137c-0.175-0.729-0.459-1.767-0.662-3.047
						c-0.098-0.642-0.206-1.331-0.213-2.111c-0.005-0.193,0.009-0.401,0.045-0.625c0.024-0.21,0.176-0.528,0.361-0.703
						c0.385-0.384,0.853-0.502,1.28-0.592c0.869-0.153,1.729-0.124,2.582-0.055c0.412,0.021,0.894,0.114,1.142,0.045
						c0.332-0.068,0.734-0.218,1.116-0.372l1.191-0.475c0.206-0.078,0.415-0.155,0.649-0.221c0.133-0.026,0.226-0.073,0.136-0.024
						c-0.066,0.041-0.084,0.161-0.075,0.123c-0.006-0.164-0.223-0.612-0.392-0.956c-0.182-0.37-0.371-0.749-0.521-1.154
						c-0.277-0.786-0.492-1.508-0.718-2.215c-0.22-0.702-0.429-1.365-0.621-1.977c-0.391-1.222-0.659-2.261-0.874-2.979
						c-0.194-0.725-0.306-1.139-0.306-1.139s0.178,0.391,0.488,1.074c0.291,0.691,0.744,1.665,1.221,2.857
						c0.24,0.595,0.502,1.24,0.777,1.922c0.271,0.678,0.555,1.394,0.85,2.134c0.144,0.341,0.332,0.687,0.529,1.048
						c0.187,0.393,0.441,0.673,0.531,1.354c0.022,0.168-0.064,0.517-0.306,0.682c-0.264,0.175-0.389,0.155-0.458,0.188
						c-0.173,0.051-0.362,0.122-0.554,0.198l-1.183,0.488c-0.413,0.156-0.815,0.313-1.319,0.41c-0.598,0.092-0.965-0.036-1.39-0.052
						c-0.821-0.076-1.631-0.146-2.349-0.042c-0.353,0.05-0.682,0.159-0.863,0.313c-0.166,0.109-0.228,0.406-0.249,0.771
						c-0.05,0.689-0.001,1.387,0.046,2.018c0.107,1.268,0.201,2.336,0.297,3.077C64.929,63.546,64.977,63.972,64.977,63.972z"/>
				</g>
			</g>
			<path fill="#FFCC81" d="M53.723,59.262c0,0-1.715,1.579-0.835,3.51l1.227,0.22c0,0,0,1.053,1.886,1.711
				c1.887,0.658,4.476,1.887,5.133,1.404c0.659-0.482-2.462-4.257-4.149-4.914C55.299,60.534,53.723,59.262,53.723,59.262z"/>
			<path fill="#FFCC81" d="M67.799,58.992c0,0,1.804,1.717,0.81,3.304l-1.245,0.006c0,0-0.181,1.037-2.152,1.363
				c-1.972,0.325-4.732,1.093-5.298,0.505c-0.566-0.589,3.154-3.772,4.929-4.132C66.616,59.678,67.799,58.992,67.799,58.992z"/>
			<g>
				<polygon fill="#C5C5C5" points="42.084,49.589 46.157,69.689 74.956,69.689 78.905,49.589 				"/>
				<circle fill="#F5F5F5" cx="60.476" cy="59.64" r="2.573"/>
			</g>
			<g opacity="0.1">
				<path fill="#1C1C1B" d="M60.495,77.929c0,0,0.035,0.482,0.096,1.326c0.04,0.845,0.137,2.051,0.181,3.498
					c0.043,1.447,0.125,3.135,0.156,4.944c0.042,1.809,0.048,3.738,0.057,5.668c-0.011,1.93-0.019,3.858-0.063,5.668
					c-0.031,1.809-0.117,3.497-0.162,4.944c-0.045,1.446-0.145,2.652-0.186,3.497c-0.063,0.844-0.098,1.326-0.098,1.326
					s-0.035-0.482-0.097-1.326c-0.04-0.845-0.138-2.051-0.182-3.498c-0.043-1.447-0.127-3.135-0.156-4.944
					c-0.042-1.809-0.047-3.738-0.056-5.668c0.012-1.93,0.021-3.858,0.064-5.668c0.032-1.809,0.117-3.497,0.162-4.944
					c0.046-1.446,0.145-2.652,0.186-3.497C60.459,78.411,60.495,77.929,60.495,77.929z"/>
			</g>
		</g>
	</g>
</g>
</svg>
