<?xml version="1.0" encoding="utf-8"?>
<!-- Generator: Adobe Illustrator 16.0.0, SVG Export Plug-In . SVG Version: 6.00 Build 0)  -->
<!DOCTYPE svg PUBLIC "-//W3C//DTD SVG 1.1//EN" "http://www.w3.org/Graphics/SVG/1.1/DTD/svg11.dtd">
<svg version="1.1" id="Layer_1" xmlns="http://www.w3.org/2000/svg" xmlns:xlink="http://www.w3.org/1999/xlink" x="0px" y="0px"
	 width="120px" height="120px" viewBox="0 0 120 120" enable-background="new 0 0 120 120" xml:space="preserve">
<g>
	<ellipse opacity="0.5" fill="#C5C5C5" cx="59.994" cy="108.062" rx="60" ry="9.41"/>
	<g>
		<path fill="#7E4E24" d="M59.079,104.831l-2.302,0.218l-3.31-1.601l-17.599,9.227l23.885-2.261
			C58.876,107.188,59.079,104.831,59.079,104.831z"/>
		<path fill="#FFCC81" d="M80.459,61.563c0.752,1.891,1.498,4.021,2.143,5.955l-7.919,3.246c-6.594-12.551-4.155-16.66-3.018-17.242
			c1.145-0.575,4.495-0.101,6.974,4.103C79.22,58.611,79.846,60.002,80.459,61.563z"/>
		<g>
			<path fill="#53E8D0" d="M56.772,87.854c5.733,0.872,29.891-4.532,35.139-4.532s9.661,2.505,10.257,5.725
				c0.597,3.221,1.908,12.762-38.523,20.275c0,0-0.06,1.908-0.775,2.207c0,0-37.718-3.188-45.589-9.333
				c-7.872-6.145-3.579-10.796,0-13.837C20.857,85.317,30.518,83.859,56.772,87.854z"/>
			<g opacity="0.1">
				<path fill="#1C1C1B" d="M26.314,90.597c1.6,0.423,3.18,0.909,4.77,1.369c1.583,0.476,3.156,0.986,4.733,1.483
					c3.15,1.005,6.282,2.067,9.391,3.198c1.562,0.545,3.111,1.123,4.651,1.729c1.542,0.6,3.095,1.168,4.618,1.822
					c1.529,0.638,3.047,1.3,4.563,1.965c1.492,0.729,2.988,1.445,4.464,2.197l0.083,0.042l0.022,0.077
					c0.122,0.42,0.139,0.818,0.207,1.225c0.022,0.406,0.024,0.813,0.037,1.216c0.032,0.404-0.043,0.806-0.076,1.206l-0.132,1.196
					l0.001-1.202c-0.012-0.398,0.04-0.797-0.027-1.191c-0.045-0.395-0.079-0.79-0.132-1.18c-0.096-0.377-0.149-0.782-0.282-1.125
					l0.105,0.119c-1.528-0.625-3.031-1.297-4.547-1.935c-1.544-0.583-3.086-1.167-4.617-1.776c-1.534-0.604-3.094-1.148-4.633-1.741
					l-4.641-1.724l-4.645-1.719c-1.553-0.56-3.098-1.144-4.642-1.732c-1.545-0.582-3.101-1.137-4.643-1.734L26.314,90.597z"/>
			</g>
			<g opacity="0.1">
				<path fill="#1C1C1B" d="M59.77,102.861c0,0,0.331-0.261,0.931-0.685c0.605-0.416,1.452-1.044,2.515-1.717
					c1.058-0.684,2.296-1.477,3.648-2.281c1.346-0.818,2.832-1.603,4.3-2.42c1.5-0.759,2.999-1.52,4.429-2.183
					c1.443-0.637,2.812-1.183,3.974-1.669c1.188-0.432,2.198-0.732,2.894-0.97c0.699-0.226,1.103-0.341,1.103-0.341
					s-0.376,0.189-1.033,0.522c-0.664,0.312-1.596,0.795-2.737,1.304c-1.121,0.563-2.409,1.261-3.814,1.945
					c-1.387,0.726-2.867,1.5-4.347,2.274c-2.956,1.564-5.913,3.128-8.13,4.301c-1.117,0.578-2.047,1.061-2.699,1.397
					C60.146,102.672,59.77,102.861,59.77,102.861z"/>
			</g>
		</g>
		<path fill="#FFDF00" d="M71.665,67.607l-1.529-5.544c0,0,1.194,16.316,4.216,21.917c0.626,1.163,1.789,2.231,1.157,2.952
			c-0.626,0.714-11.069,5.702-16.632,5.456c-12.169-0.537-21.708-4.83-21.052-6.979c0.165-0.544,0.829-3.072,1.594-6.315
			c0.373-1.568,0.765-3.306,1.137-5.07c1.043-4.893,1.922-9.969,1.682-12.138c-0.089-0.809-3.8,0.841-5.323,1.739
			c0,0-0.31-0.203-0.797-0.664c-1.239-1.157-3.641-3.951-5.126-9.186c-0.171-0.6-0.329-1.239-0.474-1.909
			c0,0,10.557-6.663,15.475-8.591c4.116-1.605,8.579-2.421,11.259-2.32c5.557,0.195,10.658,1.251,12.89,2.503
			c2.238,1.252,7.965,6.708,12.884,18.782C83.025,62.24,79.896,67.07,71.665,67.607z"/>
		<path fill="#FFCC81" d="M54.141,36.087c0,0,0.57,7.026,0.625,8.437c0,0,3.01,5.155,5.08-0.241l0.593-8.133L54.141,36.087z"/>
		<path opacity="0.05" fill="#1C1C1B" d="M54.141,36.087c0,0,0.57,7.026,0.625,8.437c0,0,3.01,5.155,5.08-0.241l0.593-8.133
			L54.141,36.087z"/>
		<path fill="#7E4E24" d="M46.17,8.536c0,0-5.057,3.082-4.425,7.823c0.631,4.742,2.027,10.668,3.108,12.407
			c1.08,1.738,7.718,5.531,12.064,6.005c4.346,0.474,10.825-4.978,11.773-7.744c0.948-2.765,2.978-17.352-0.724-20.213
			C64.266,3.953,49.884,0.476,46.17,8.536z"/>
		<g>
			<path fill="#FFCC81" d="M63.211,29.458c0.222,1.995,1.792,3.417,3.821,2.694c2.252-0.801,4.844-5.65,2.072-7.999
				C66.725,22.134,62.645,24.369,63.211,29.458z"/>
			<path fill="#FFCC81" d="M48.601,29.458c-0.221,1.995-1.792,3.417-3.822,2.694c-2.251-0.801-4.843-5.65-2.072-7.999
				C45.087,22.134,49.167,24.369,48.601,29.458z"/>
			<path opacity="0.05" fill="#1C1C1B" d="M63.211,29.458c0.222,1.995,1.792,3.417,3.821,2.694c2.252-0.801,4.844-5.65,2.072-7.999
				C66.725,22.134,62.645,24.369,63.211,29.458z"/>
			<path opacity="0.05" fill="#1C1C1B" d="M48.601,29.458c-0.221,1.995-1.792,3.417-3.822,2.694
				c-2.251-0.801-4.843-5.65-2.072-7.999C45.087,22.134,49.167,24.369,48.601,29.458z"/>
			<path fill="#FFCC81" d="M56.032,6.813c9.198,0,11.852,7.116,11.852,15.636c0,8.549-4.379,16.15-11.033,16.15
				c-6.752,0-11.739-7.672-12.55-14.11C42.734,12.061,49.126,6.813,56.032,6.813z"/>
			<path fill="#7E4E24" d="M48.654,12.329c0,0-4.827,13.796-4.825,10.905c0,0-0.947-7.332,1.015-10.928
				c1.963-3.597,7.688-8.563,15.761-5.493c0,0,9.393,2.46,7.278,16.602c0,0-0.94-4.198-1.152-4.29
				C65.248,18.48,53.141,18.597,48.654,12.329z"/>
		</g>
		<g>
			<path fill="#FFE69C" d="M49.318,97.146c-10.773,4.407-16.979-10.726-17.009-10.8c-0.031-0.076-6.21-15.219,4.563-19.626
				c7.634-3.123,11.541,1.88,14.039,0.858c1.628-0.666,4.494-4.195,7.105-4.949c2.607-0.752,8.995-0.852,12.629,8.034
				c3.634,8.886-0.991,13.292-3.378,14.583c-2.392,1.293-6.909,0.783-8.537,1.449C56.234,87.718,56.953,94.023,49.318,97.146z"/>
			<polygon fill="#7E4E24" points="95.755,63.694 92.512,65.021 88.89,66.501 86.398,67.519 79.616,70.301 49.878,82.464 
				47.482,76.609 76.486,64.744 84.256,61.563 93.365,57.84 			"/>
			<circle fill="#1C1C1B" cx="47.096" cy="80.297" r="6.006"/>
			<path fill="#FFDF00" d="M92.197,64.593l-1.924-4.701c-0.516-1.26,0.088-2.7,1.348-3.215l9.233-3.777
				c1.26-0.515,2.698,0.088,3.214,1.349l1.923,4.702c0.516,1.26-0.088,2.699-1.348,3.215l-9.232,3.776
				C94.151,66.457,92.712,65.853,92.197,64.593z"/>
			<g>
				
					<line fill="none" stroke="#1C1C1B" stroke-width="0.5" stroke-miterlimit="10" x1="104.192" y1="54.551" x2="47.884" y2="77.585"/>
				
					<line fill="none" stroke="#1C1C1B" stroke-width="0.5" stroke-miterlimit="10" x1="104.611" y1="55.575" x2="48.302" y2="78.608"/>
				<line fill="none" stroke="#1C1C1B" stroke-width="0.5" stroke-miterlimit="10" x1="105.03" y1="56.6" x2="48.721" y2="79.632"/>
				
					<line fill="none" stroke="#1C1C1B" stroke-width="0.5" stroke-miterlimit="10" x1="105.449" y1="57.624" x2="49.14" y2="80.656"/>
				
					<line fill="none" stroke="#1C1C1B" stroke-width="0.5" stroke-miterlimit="10" x1="105.867" y1="58.647" x2="49.559" y2="81.681"/>
			</g>
		</g>
		<path fill="#FFCC81" d="M40.556,74.023c-0.373,1.765-0.765,3.502-1.137,5.07c-14.528-1.612-22.86-7.617-22.417-11.082
			c0.601-4.729,8.446-10.658,13.99-14.236c1.485,5.234,3.888,8.028,5.126,9.186c-4.659,2.162-8.895,4.153-9.002,5.209
			C27.009,69.231,34.639,72.185,40.556,74.023z"/>
		<path fill="#FFCC81" d="M52.562,79.511c-2.137,0.322-4.545,0-5.532,0c-2.693,0-5.241-0.146-7.611-0.417
			c0.373-1.568,0.765-3.306,1.137-5.07c2.655,0.822,4.957,1.429,6.063,1.537c0.936,0.088,5.967-1.568,6.783-1.176
			c0.822,0.397-1.574,1.378-2.206,1.637c-0.639,0.259,5.209,0.575,5.948,1.473C57.555,77.993,55.223,79.106,52.562,79.511z"/>
		<path fill="#FFCC81" d="M84.591,88.399c-3.188,0.348-7.089-10.072-9.908-17.635l7.919-3.246c1.119,3.287,1.577,5.889,1.734,5.92
			c0,0,0.563-1.901,0.998-3.846c0.042-0.188,0.049-2.029-0.241-3.092l3.622-1.479c0.025,0.961,0.31,3.069,0,4.118
			C88.62,69.449,90.386,87.768,84.591,88.399z"/>
		<path fill="#FFCC81" d="M88.715,65.021l-3.622,1.479c-0.544-1.997-1.239-4.881-0.499-6.183c0.403-0.72,2.591,1.271,2.895,4.292
			c0.025-0.215,0.044-2.737,0.493-2.148C88.481,63.113,88.702,64.011,88.715,65.021z"/>
		<g opacity="0.1">
			<path fill="#1C1C1B" d="M84.336,73.438c0,0,0.052,0.519,0.059,1.264c0.001,0.372,0.01,0.806-0.017,1.263
				c0.008,0.46-0.046,0.944-0.053,1.431c-0.032,0.485-0.064,0.971-0.095,1.426c-0.019,0.455-0.09,0.885-0.113,1.253
				c-0.053,0.735-0.175,1.253-0.175,1.253s-0.212-0.471-0.398-1.216c-0.105-0.372-0.143-0.813-0.194-1.286
				c-0.064-0.475-0.025-0.979-0.022-1.485c0.057-1.01,0.259-2.005,0.503-2.727C84.061,73.887,84.336,73.438,84.336,73.438z"/>
		</g>
		<g opacity="0.1">
			<path fill="#1C1C1B" d="M41.09,58.647c0,0,0.064-0.02,0.185-0.003c0.125,0.016,0.289,0.065,0.459,0.176
				c0.174,0.106,0.35,0.269,0.481,0.474c0.167,0.197,0.223,0.441,0.318,0.679c0.068,0.245,0.076,0.489,0.078,0.72
				c0.014,0.23-0.049,0.439-0.104,0.617c-0.107,0.356-0.269,0.575-0.269,0.575s-0.176-0.23-0.305-0.547
				c-0.072-0.158-0.117-0.345-0.194-0.527c-0.081-0.181-0.096-0.392-0.169-0.573c-0.058-0.183-0.084-0.389-0.142-0.553
				c-0.041-0.182-0.086-0.342-0.13-0.495C41.213,58.898,41.102,58.646,41.09,58.647z"/>
		</g>
		<g opacity="0.1">
			<path fill="#1C1C1B" d="M70.136,62.063c0,0-0.19-0.25-0.328-0.646c-0.149-0.396-0.249-0.935-0.246-1.481
				c0.006-0.271,0.039-0.549,0.091-0.802c0.048-0.255,0.143-0.495,0.228-0.689c0.083-0.197,0.212-0.353,0.288-0.453
				c0.083-0.101,0.138-0.151,0.138-0.151s0.024,0.079,0.054,0.204c0.032,0.128,0.053,0.29,0.088,0.487
				c0.072,0.396,0.115,0.9,0.114,1.417c-0.011,0.515-0.079,1.037-0.184,1.438C70.279,61.784,70.136,62.063,70.136,62.063z"/>
		</g>
		<path fill="#7E4E24" d="M63.596,105.354h2.313l3.144-1.905l18.391,7.527H63.451C64.02,107.681,63.596,105.354,63.596,105.354z"/>
	</g>
</g>
</svg>
