<?xml version="1.0" encoding="utf-8"?>
<!-- Generator: Adobe Illustrator 16.0.0, SVG Export Plug-In . SVG Version: 6.00 Build 0)  -->
<!DOCTYPE svg PUBLIC "-//W3C//DTD SVG 1.1//EN" "http://www.w3.org/Graphics/SVG/1.1/DTD/svg11.dtd">
<svg version="1.1" id="Layer_1" xmlns="http://www.w3.org/2000/svg" xmlns:xlink="http://www.w3.org/1999/xlink" x="0px" y="0px"
	 width="132.395px" height="119.719px" viewBox="0 0 132.395 119.719" enable-background="new 0 0 132.395 119.719"
	 xml:space="preserve">
<g>
	<ellipse opacity="0.5" fill="#C5C5C5" cx="68.568" cy="104.796" rx="60" ry="9.41"/>
	<g>
		<g>
			<g>
				<g>
					<polygon fill="#7E4E24" points="95.343,100.725 96.369,102.625 114.657,108.516 88.561,108.516 87.907,100.725 					"/>
					<polygon fill="#7E4E24" points="106.601,95.546 109.36,97.189 125.188,102.288 102.603,102.288 102.037,95.546 					"/>
				</g>
				<path fill="#FFE69C" d="M39.514,97.414c0,0,31.617-11.323,36.256-10.371c4.64,0.953,26.378,12.616,26.378,12.616
					s3.704,1.122,6.286-3.256c0,0-22.45-21.446-32.328-21.446s-39.062,4.834-42.99,7.64c-3.929,2.806-2.47,14.144,5.949,14.704"/>
				<path opacity="0.1" fill="#1C1C1B" d="M39.514,97.414c0,0,31.617-11.323,36.256-10.371c4.64,0.953,26.378,12.616,26.378,12.616
					s3.704,1.122,6.286-3.256c0,0-22.45-21.446-32.328-21.446s-39.062,4.834-42.99,7.64c-3.929,2.806-2.47,14.144,5.949,14.704"/>
				<path fill="#FFE69C" d="M26.816,100.669c0,0,1.826,8.25,14.361,8.25s16.237-7.576,19.69-11.281
					c3.454-3.703,13.219-16.5,14.903-16.331c1.684,0.168,12.516,23.375,12.516,23.375s5.332,1.487,8.25-1.992
					c0,0-9.388-39.379-20.256-37.443S31.405,91.24,26.816,100.669z"/>
			</g>
			<path fill="#1C1C1B" d="M23.958,10.196c0,0-7.123,1.66-9.609,7.045s-0.453,16.155-0.997,21.227
				C12.197,49.234,0.798,87.131,35.583,81.455c22.981-3.748,12.563-30.071,12.398-36.244s4.943-14.875-0.746-29.204
				C46.017,12.941,38.27,0.034,23.958,10.196z"/>
			<g>
				<g>
					<path fill="#53E8D0" d="M86.828,67.73L71.66,77.265c-0.333,0.21-0.758,0.206-1.087-0.013c-1.423-0.947-5.833-3.46-13.973-4.595
						c-0.158-0.022-0.311-0.081-0.441-0.173c-0.921-0.655-5.03-3.498-9.801-5.582c-0.757-0.33-0.79-1.378-0.06-1.758l15.923-8.269
						c0.205-0.106,0.441-0.141,0.669-0.091c1.399,0.302,6.639,1.658,10.716,5.728c0.165,0.164,0.381,0.271,0.614,0.292
						c1.626,0.143,8.43,0.866,12.573,3.253C87.438,66.428,87.452,67.338,86.828,67.73z"/>
					<path fill="#FFFFFF" d="M56.831,71.727l16.486-9.278c0,0,9.334,0.637,13.396,3.921L70.712,76.428
						C70.712,76.428,66.547,73.029,56.831,71.727z"/>
					<path fill="#FFFFFF" d="M62.652,56.748c0,0,6.175,1.034,10.665,5.7l-16.486,9.278c0,0-5.367-3.939-11.227-6.125L62.652,56.748z
						"/>
				</g>
				<g>
					<g opacity="0.1">
						<path fill="#1C1C1B" d="M61.999,57.944c0,0,0.165-0.012,0.456-0.007c0.289,0.01,0.708,0.006,1.201,0.121
							c0.247,0.056,0.51,0.147,0.769,0.313c0.231,0.164,0.476,0.336,0.728,0.514c0.251,0.182,0.511,0.369,0.774,0.56
							c0.267,0.224,0.511,0.325,0.841,0.372c0.319,0.065,0.661,0.127,0.974,0.285c0.16,0.079,0.296,0.191,0.412,0.328
							c0.103,0.101,0.216,0.229,0.327,0.327c0.45,0.378,0.939,0.715,1.343,0.992c0.826,0.55,1.376,0.916,1.376,0.916
							s-0.594-0.293-1.451-0.798c-0.424-0.268-0.919-0.545-1.424-0.96c-0.121-0.105-0.219-0.213-0.345-0.335
							c-0.096-0.106-0.207-0.198-0.344-0.264c-0.271-0.132-0.591-0.186-0.918-0.247c-0.332-0.041-0.702-0.22-0.93-0.43
							c-0.26-0.195-0.517-0.388-0.765-0.573c-0.247-0.188-0.485-0.372-0.712-0.545c-0.215-0.152-0.456-0.255-0.691-0.32
							c-0.469-0.133-0.882-0.185-1.168-0.215C62.164,57.948,61.999,57.944,61.999,57.944z"/>
					</g>
					<g opacity="0.1">
						<path fill="#1C1C1B" d="M60.979,58.455c0,0,0.654,0.048,1.613,0.286c0.239,0.064,0.497,0.139,0.762,0.258
							c0.131,0.063,0.268,0.129,0.393,0.246c0.12,0.12,0.193,0.239,0.302,0.348c0.404,0.428,0.926,0.835,1.428,1.24
							c0.244,0.196,0.538,0.332,0.829,0.431c0.304,0.105,0.603,0.209,0.892,0.31c0.583,0.206,1.095,0.527,1.466,0.843
							c0.755,0.627,1.258,1.044,1.258,1.044s-0.535-0.376-1.337-0.939c-0.391-0.3-0.872-0.574-1.456-0.754
							c-0.291-0.095-0.592-0.193-0.897-0.293c-0.319-0.105-0.627-0.242-0.898-0.451c-0.531-0.394-1.021-0.823-1.453-1.289
							c-0.209-0.254-0.344-0.456-0.607-0.566c-0.241-0.124-0.491-0.212-0.721-0.288C61.624,58.581,60.979,58.455,60.979,58.455z"/>
					</g>
					<g opacity="0.1">
						<path fill="#1C1C1B" d="M54.244,62.137c0,0,0.648,0.102,1.584,0.418c0.232,0.084,0.484,0.179,0.738,0.319
							c0.126,0.072,0.257,0.149,0.372,0.277c0.11,0.129,0.173,0.254,0.272,0.37c0.369,0.461,0.854,0.91,1.321,1.354
							c0.228,0.216,0.509,0.376,0.791,0.497c0.294,0.131,0.583,0.259,0.863,0.383c0.564,0.252,1.048,0.614,1.392,0.96
							c0.701,0.687,1.167,1.145,1.167,1.145s-0.502-0.419-1.255-1.047c-0.365-0.331-0.821-0.644-1.389-0.87
							c-0.282-0.119-0.574-0.242-0.871-0.366c-0.309-0.131-0.605-0.294-0.858-0.523c-0.498-0.436-0.949-0.904-1.342-1.404
							c-0.188-0.27-0.305-0.482-0.558-0.614c-0.23-0.144-0.472-0.251-0.695-0.346C54.877,62.315,54.244,62.137,54.244,62.137z"/>
					</g>
					<g opacity="0.1">
						<path fill="#1C1C1B" d="M59.673,59.102c0,0,0.652,0.052,1.589,0.36c0.228,0.096,0.48,0.188,0.723,0.351
							c0.131,0.063,0.235,0.179,0.349,0.29c0.101,0.104,0.203,0.211,0.308,0.319c0.106,0.108,0.207,0.23,0.321,0.331l0.374,0.262
							c0.237,0.188,0.54,0.323,0.813,0.483c0.567,0.311,1.158,0.572,1.704,0.848c0.553,0.257,1.041,0.558,1.454,0.821
							c0.434,0.231,0.707,0.557,0.928,0.731c0.212,0.189,0.333,0.297,0.333,0.297s-0.131-0.097-0.36-0.266
							c-0.236-0.159-0.533-0.433-0.974-0.643c-0.419-0.243-0.921-0.498-1.477-0.747c-0.545-0.263-1.147-0.517-1.725-0.821
							c-0.283-0.171-0.577-0.306-0.84-0.52l-0.396-0.294c-0.117-0.106-0.212-0.228-0.317-0.339c-0.22-0.221-0.379-0.466-0.599-0.604
							c-0.214-0.163-0.455-0.265-0.67-0.37C60.317,59.228,59.673,59.102,59.673,59.102z"/>
					</g>
					<g opacity="0.1">
						<path fill="#1C1C1B" d="M52.681,62.85c0,0,0.646,0.103,1.556,0.484c0.219,0.113,0.464,0.224,0.692,0.406
							c0.126,0.072,0.221,0.197,0.325,0.316c0.092,0.112,0.186,0.227,0.282,0.343c0.097,0.116,0.188,0.246,0.294,0.355l0.352,0.29
							c0.222,0.206,0.513,0.365,0.773,0.546c0.541,0.354,1.109,0.661,1.632,0.979c0.531,0.3,0.994,0.639,1.385,0.934
							c0.415,0.265,0.661,0.609,0.868,0.802c0.196,0.205,0.308,0.322,0.308,0.322s-0.123-0.106-0.338-0.293
							c-0.223-0.178-0.497-0.474-0.92-0.718c-0.398-0.274-0.879-0.569-1.413-0.86c-0.522-0.305-1.103-0.605-1.655-0.954
							c-0.268-0.193-0.551-0.351-0.796-0.584l-0.372-0.324c-0.108-0.116-0.194-0.244-0.29-0.362
							c-0.202-0.237-0.341-0.495-0.549-0.65c-0.201-0.179-0.433-0.3-0.639-0.421C53.313,63.025,52.681,62.85,52.681,62.85z"/>
					</g>
					<g opacity="0.1">
						<path fill="#1C1C1B" d="M58.548,59.779c0,0,0.464,0.423,1.272,0.872c0.39,0.248,0.895,0.446,1.424,0.68
							c0.531,0.236,1.114,0.475,1.641,0.843c0.264,0.198,0.48,0.425,0.7,0.63c0.227,0.194,0.452,0.384,0.686,0.558
							c0.457,0.354,0.896,0.672,1.284,0.924c0.767,0.523,1.333,0.785,1.333,0.785s-0.595-0.195-1.406-0.666
							c-0.403-0.237-0.87-0.521-1.341-0.87c-0.237-0.17-0.475-0.362-0.716-0.562c-0.229-0.209-0.45-0.429-0.686-0.597
							c-0.487-0.352-1.057-0.603-1.583-0.847c-0.531-0.242-1.023-0.487-1.409-0.758c-0.403-0.242-0.689-0.515-0.895-0.691
							C58.651,59.895,58.548,59.779,58.548,59.779z"/>
					</g>
					<g opacity="0.1">
						<path fill="#1C1C1B" d="M56.902,60.602c0,0,0.584,0.28,1.461,0.7c0.217,0.106,0.452,0.223,0.701,0.346
							c0.252,0.119,0.526,0.22,0.792,0.377c0.539,0.299,1.114,0.599,1.625,1.041c0.254,0.204,0.479,0.437,0.716,0.65
							c0.227,0.228,0.477,0.408,0.714,0.593c0.243,0.186,0.452,0.368,0.693,0.513c0.233,0.129,0.469,0.244,0.688,0.353
							c0.438,0.211,0.792,0.438,0.981,0.657c0.196,0.209,0.24,0.378,0.252,0.368c-0.011,0.01-0.071-0.154-0.282-0.338
							c-0.199-0.199-0.567-0.37-1.011-0.561c-0.222-0.095-0.465-0.196-0.726-0.325c-0.245-0.129-0.494-0.315-0.733-0.499
							c-0.245-0.185-0.507-0.368-0.735-0.59c-0.24-0.209-0.471-0.438-0.726-0.637c-0.461-0.416-1.04-0.736-1.555-1.032
							c-0.257-0.153-0.528-0.275-0.772-0.407c-0.244-0.136-0.475-0.266-0.688-0.385C57.461,60.932,56.902,60.602,56.902,60.602z"/>
					</g>
				</g>
			</g>
			<g>
				<path fill="#FF8C8C" d="M29.042,58.092c1.814,3.235,11.159,18.029,15.956,19.041c4.798,1.011,14.199-16.2,16.62-18.266
					c2.39-2.04-3.08-6.851-5.316-5.578c-5.295,3.013-8.716,11.402-9.44,11.15c-1.275-0.444-5.138-11.499-6.6-13.629
					c-1.461-2.132-5.212-6.876-9.475-3.954C26.525,49.779,27.789,55.857,29.042,58.092z"/>
				<path opacity="0.1" fill="#1C1C1B" d="M29.042,58.092c1.814,3.235,11.159,18.029,15.956,19.041
					c4.798,1.011,14.199-16.2,16.62-18.266c2.39-2.04-3.08-6.851-5.316-5.578c-5.295,3.013-8.716,11.402-9.44,11.15
					c-1.275-0.444-5.138-11.499-6.6-13.629c-1.461-2.132-5.212-6.876-9.475-3.954C26.525,49.779,27.789,55.857,29.042,58.092z"/>
				<path fill="#FFCC81" d="M56.283,56.092c0,0,1.262,2.067,3.125,2.583l1.552-1.35c0,0,0.516,0.168,1.898-1.83
					c1.382-1.999,0.667-4.27,0.667-4.27s5.708-0.935,5.2-2.779c-0.265-0.962-7.662-2.463-9.472-0.102
					c-1.81,2.361-1.368,4.877-1.708,5.672C57.206,54.813,56.283,56.092,56.283,56.092z"/>
				<g>
					<path fill="#FFDF00" d="M67.022,55.199l-9.667-7.517c0,0-0.134-0.424,0.179-0.793c0.322-0.378,0.69-0.327,0.69-0.327
						l9.667,7.517L67.022,55.199z"/>
					<path fill="#FFCC81" d="M68.96,55.644l-0.671-0.156l-1.269-0.292c0,0-0.002-0.894,0.869-1.122l0.689,1.011L68.96,55.644z"/>
					<path fill="#1C1C1B" d="M68.96,55.644l-0.671-0.156c0.032-0.133,0.119-0.294,0.29-0.402L68.96,55.644z"/>
				</g>
				<g>
					<path fill="#FFCC81" d="M59.962,52.623c0,0,3.745-2.732,4.809-2.28c1.063,0.454-1.19,2.448-1.546,3.125
						c-0.355,0.677-0.762,2.104-2.963,2.54"/>
					<g opacity="0.1">
						<path fill="#1C1C1B" d="M63.702,52.834c0,0-0.042,0.075-0.122,0.198c-0.037,0.063-0.068,0.146-0.108,0.235
							c-0.032,0.084-0.095,0.199-0.121,0.273c-0.056,0.257-0.021,0.506-0.111,0.842c-0.024,0.162-0.102,0.324-0.169,0.488
							c-0.055,0.171-0.184,0.31-0.291,0.46c-0.104,0.157-0.247,0.27-0.401,0.367c-0.152,0.094-0.287,0.226-0.453,0.259
							c-0.323,0.081-0.617,0.201-0.876,0.179c-0.519-0.009-0.846-0.059-0.846-0.059s0.33-0.113,0.796-0.218
							c0.244-0.02,0.468-0.212,0.736-0.299c0.143-0.037,0.225-0.173,0.349-0.245c0.122-0.08,0.234-0.172,0.308-0.301
							c0.086-0.116,0.198-0.215,0.246-0.358c0.056-0.136,0.147-0.252,0.18-0.397c0.041-0.14,0.1-0.263,0.138-0.416
							c0.039-0.147,0.083-0.275,0.127-0.389c0.077-0.147,0.166-0.21,0.238-0.296c0.074-0.076,0.133-0.146,0.188-0.192
							C63.629,52.879,63.702,52.834,63.702,52.834z"/>
					</g>
					<g opacity="0.1">
						<path fill="#1C1C1B" d="M59.44,51.672c0,0,0.049,0.021,0.135,0.059c0.077,0.045,0.205,0.078,0.334,0.138
							c0.065,0.031,0.14,0.039,0.212,0.061l0.055,0.014c-0.087-0.01,0.015-0.011,0.013-0.018c0.046-0.011,0.093-0.015,0.141-0.021
							c0.067-0.036,0.121-0.078,0.185-0.098l0.255-0.123c0.352-0.169,0.728-0.319,1.018-0.42c0.292-0.099,0.506-0.139,0.506-0.139
							s-0.129,0.176-0.364,0.382c-0.234,0.206-0.567,0.453-0.949,0.63l-0.298,0.122c-0.126,0.042-0.258,0.065-0.373,0.084
							c-0.047-0.002-0.094-0.001-0.139-0.009c-0.046-0.011,0.007,0.012-0.12-0.026l-0.065-0.042
							c-0.083-0.058-0.166-0.103-0.226-0.16C59.518,51.878,59.44,51.672,59.44,51.672z"/>
					</g>
				</g>
			</g>
			<g>
				<path fill="#FF8C8C" d="M31.376,45.105c-9.485,0-13.043,9.254-13.043,22.609c0,13.354,6.404,36.519,7.693,39.236
					c1.289,2.718,12.752-0.945,18.071-8.037c5.318-7.091,8.355-9.873,7.883-12.473c-0.473-2.601-8.267-15.3-8.267-15.3
					s4.321-5.091,3.257-8.99c-0.376-1.381-1.796-3.371-3.303-6.075C40.917,51.141,36.021,45.105,31.376,45.105z"/>
			</g>
			<g>
				<g>
					<g>
						<path fill="#FFCC81" d="M48.344,33.873c-0.044,0.335-0.101,0.67-0.165,0.999c-0.771,4.09-2.636,7.624-5.784,8.661
							c-7.2,2.364-16.373-6.518-18.238-15.015c-1.454-6.65,2.067-15.709,10.709-16.86c6.966-0.923,12.188,5.051,13.528,15.268
							C48.686,29.144,48.679,31.565,48.344,33.873z"/>
						<path fill="#FFCC81" d="M34.019,38.723c0,0-0.672,5.792,0.068,7.258c0.739,1.466,4.39,6.788,3.762,7.817
							c-0.628,1.029-8.614-5.317-9.349-7.277c-0.735-1.96-2.073-13.125-2.073-13.125L34.019,38.723z"/>
					</g>
				</g>
				<path fill="#1C1C1B" d="M27.649,32.39c1.19-1.508,1.153,1.863,2.455,1.758c1.302-0.105,0.263-4.742,1.317-7.375
					c1.054-2.634,9.746-3.372,12.063-10.115c0,0,2.323,4.178,4.059,4.723c1.736,0.545,0.237-11.217-10.17-10.966
					c-10.901,0.264-15.541,3.319-16.436,13.75c-0.849,9.889,3.918,14.777,5.488,15.146C27.997,39.68,27.649,32.39,27.649,32.39z"/>
				<path fill="#FFCC81" d="M30.726,34.464c0.277,2.023-0.918,3.817-3.101,3.609c-2.42-0.231-6.184-4.371-4.034-7.378
					C25.437,28.112,30.019,29.301,30.726,34.464z"/>
			</g>
			<path fill="#7E4E24" d="M49.69,81.962l-0.436,0.176c-0.057-0.106-5.607-10.974-6.448-18.427
				c-0.601-5.311-5.961-9.704-10.273-13.238c-1.662-1.359-3.23-2.649-4.292-3.8c-3.25-3.54-4.008-10.664-4.04-10.961l0.468-0.051
				c0.006,0.076,0.777,7.263,3.919,10.69c1.037,1.131,2.598,2.408,4.248,3.755c4.375,3.591,9.817,8.054,10.443,13.554
				c0.607,5.411,3.743,12.675,5.386,16.184c-0.423-2.067-0.815-5.203-0.108-7.852c1.309-4.905,0.146-8.825-0.79-11.974
				c-0.278-0.936-0.538-1.827-0.689-2.61c-0.607-3.167-0.196-7.264,1.296-12.89c1.043-3.913,0.247-7.939-0.196-9.647
				c0.063-0.328,0.12-0.664,0.165-0.999l0.038-0.013c0.019,0.057,1.853,5.506,0.449,10.779c-1.473,5.557-1.884,9.583-1.29,12.681
				c0.151,0.766,0.411,1.638,0.683,2.567c0.904,3.034,2.136,7.193,0.79,12.226C47.901,76.278,49.671,81.904,49.69,81.962z"/>
			<g>
				<path fill="#53E8D0" d="M25.163,26.773c0,0-2.098-12.88,6.318-16.95c6.931-3.352,11.561,0.257,11.561,0.257
					s-6.069-5.67-14.797-1.243c-8.43,4.275-6.316,18.905-6.316,18.905S23.943,28.828,25.163,26.773z"/>
				<g>
					<path fill="#72BFE3" d="M23.558,24.679c5.197-0.354,6.885,4.952,6.783,8.121c-0.102,3.169-1.588,5.284-5.645,5.618
						c-5.858,0.482-6.407-4.627-6.661-6.775C17.78,29.495,18.978,24.991,23.558,24.679z"/>
					<path fill="#53E8D0" d="M23.735,26.446c3.881-0.264,5.142,3.698,5.065,6.064c-0.076,2.367-1.186,3.947-4.215,4.196
						c-4.375,0.359-4.785-3.456-4.975-5.06S20.314,26.679,23.735,26.446z"/>
				</g>
			</g>
			<g>
				<path fill="#FFCC81" d="M61.735,67.92l2.023-0.57c0,0,2.945-2.284,4.199-2.914c2.453-1.232,7.469-2.128,8.815-0.537
					c1.025,1.213-1.882,1.896-3.977,2.936c-1.191,0.592-1.881,1.151-3.426,2.087c-1.25,0.757-3.585,0.926-3.585,0.926l-2.246,1.277
					C61.104,69.735,61.735,67.92,61.735,67.92z"/>
				<g>
					<path fill="#FF8C8C" d="M27.481,68.424c1.615,3.339,10.045,18.673,14.772,19.973c4.728,1.301,17.019-12.055,19.737-13.709
						c2.718-1.655,6.825-2.926,7.179-3.989s-4.226-4.9-7.466-4.107c-5.918,1.449-15.191,8.897-16.433,8.366
						c-1.241-0.532-4.82-10.906-6.149-13.122c-1.329-2.216-4.786-7.18-9.218-4.521C25.472,59.974,26.366,66.117,27.481,68.424z"/>
					<g opacity="0.1">
						<path fill="#1C1C1B" d="M22.663,64.228c0,0,0.154,0.012,0.444,0.032c0.285,0.028,0.728,0.078,1.223,0.334
							c0.502,0.234,1.054,0.652,1.549,1.243c0.539,0.58,0.954,1.305,1.458,2.098c0.973,1.573,2.107,3.41,3.323,5.377
							c1.213,1.966,2.5,4.063,3.85,6.115c0.663,1.034,1.346,2.054,2.047,3.031c0.703,0.976,1.393,1.943,2.141,2.789
							c0.734,0.873,1.495,1.635,2.361,2.047c0.245,0.11,0.485,0.215,0.705,0.254c0.224,0.058,0.443,0.126,0.683,0.138
							c0.466,0.071,0.929,0.059,1.371,0.021c1.779-0.189,3.197-0.882,4.128-1.391c0.94-0.52,1.435-0.896,1.435-0.896
							s-0.436,0.443-1.333,1.062c-0.446,0.311-1.014,0.653-1.701,0.988c-0.685,0.337-1.504,0.658-2.458,0.795
							c-0.475,0.068-0.981,0.11-1.507,0.062c-0.262,0-0.534-0.063-0.812-0.121c-0.292-0.047-0.536-0.14-0.781-0.234
							c-1.078-0.436-1.984-1.264-2.747-2.137c-0.41-0.429-0.785-0.891-1.161-1.361c-0.39-0.463-0.746-0.954-1.105-1.449
							c-0.723-0.989-1.425-2.013-2.102-3.051c-1.344-2.082-2.625-4.198-3.769-6.213c-1.153-2.009-2.157-3.925-3.051-5.542
							c-0.454-0.786-0.822-1.582-1.263-2.149c-0.418-0.603-0.899-1.04-1.352-1.304c-0.448-0.279-0.859-0.393-1.14-0.451
							C22.814,64.258,22.663,64.228,22.663,64.228z"/>
					</g>
					<g opacity="0.1">
						<path fill="#1C1C1B" d="M37.083,57.492c0,0,0.156,0.262,0.409,0.729c0.243,0.471,0.619,1.132,1.024,1.943
							c0.824,1.618,1.853,3.804,2.834,6.007c0.976,2.206,1.905,4.43,2.604,6.097c0.356,0.829,0.633,1.531,0.877,1.997
							c0.122,0.231,0.215,0.415,0.297,0.529c0.08,0.112,0.145,0.159,0.142,0.162c0,0-0.284-0.15-0.604-0.588
							c-0.322-0.428-0.766-1.054-1.226-1.842c-0.935-1.57-2.021-3.739-3.005-5.95c-0.979-2.214-1.855-4.47-2.447-6.188
							c-0.302-0.857-0.512-1.588-0.677-2.093C37.159,57.788,37.083,57.492,37.083,57.492z"/>
					</g>
				</g>
			</g>
		</g>
	</g>
</g>
</svg>
