<?xml version="1.0" encoding="utf-8"?>
<!-- Generator: Adobe Illustrator 16.0.0, SVG Export Plug-In . SVG Version: 6.00 Build 0)  -->
<!DOCTYPE svg PUBLIC "-//W3C//DTD SVG 1.1//EN" "http://www.w3.org/Graphics/SVG/1.1/DTD/svg11.dtd">
<svg version="1.1" id="Layer_1" xmlns="http://www.w3.org/2000/svg" xmlns:xlink="http://www.w3.org/1999/xlink" x="0px" y="0px"
	 width="120px" height="120px" viewBox="0 0 120 120" enable-background="new 0 0 120 120" xml:space="preserve">
<g>
	<ellipse opacity="0.5" fill="#C5C5C5" cx="59.302" cy="111.199" rx="56.108" ry="8.801"/>
	<g>
		<g>
			<polygon fill="#7E4E24" points="88.226,103.574 87.899,105.729 105.332,111.345 80.457,111.345 81.175,102.399 			"/>
			<g>
				<g>
					<g>
						<path fill="#7E4E24" d="M95.639,105.894c-0.09,2.139-2.691,0.271-3.676-0.225c-1.367-0.688-2.656-0.961-3.909,0.044
							c-0.629,0.505,0.262,1.384,0.885,0.885c1.875-1.505,4.443,2.207,6.636,1.508c0.895-0.285,1.278-1.36,1.314-2.212
							C96.923,105.087,95.673,105.091,95.639,105.894L95.639,105.894z"/>
					</g>
				</g>
				<g>
					<g>
						<path fill="#7E4E24" d="M88.751,106.778c1.632-0.272,3.249-0.804,4.718-1.561c1.572-0.811,3.688-2.906,2.563-4.866
							c-0.97-1.687-3.26-1.583-4.632-0.482c-0.953,0.766-1.529,2.34-2.076,3.394c-0.444,0.856-0.869,1.724-1.278,2.598
							c-0.339,0.726,0.738,1.36,1.08,0.631c0.611-1.31,1.262-2.603,1.955-3.87c0.432-0.79,0.857-1.822,1.742-2.182
							c0.712-0.289,1.83-0.205,2.151,0.608c0.747,1.893-2.283,3.24-3.557,3.719c-0.963,0.362-1.982,0.637-2.998,0.807
							C87.625,105.706,87.963,106.91,88.751,106.778z"/>
					</g>
				</g>
			</g>
			<polygon fill="#7E4E24" points="32.812,103.782 30.515,103.782 27.574,102 10.377,109.039 32.812,109.039 			"/>
		</g>
		<g>
			<path fill="#FFDF00" d="M34.563,76.2c0,0-2.123,9.96,2.123,13.391c4.246,3.429,18.67,2.067,18.67,2.067s0.327,6.097-0.653,6.968
				s-24.82,4.463-24.82,4.463s-1.959,4.682,0,6.641c0,0,33.312,1.089,36.577,0c3.267-1.088,5.009-23.841,5.009-23.841
				s7.184-3.593,8.382-3.593c1.197,0,1.088,22.208,1.088,22.208s4.246,2.178,7.512,0c0,0,6.423-29.175,3.266-35.706
				c-3.156-6.532-24.493,0.871-32.876,3.156C50.458,74.241,34.563,76.2,34.563,76.2z"/>
			<g opacity="0.1">
				<path fill="#1C1C1B" d="M55.356,91.658c0,0,0.244-0.118,0.679-0.302c0.434-0.181,1.054-0.439,1.799-0.75
					c0.745-0.303,1.619-0.636,2.561-0.972c0.474-0.16,0.948-0.371,1.443-0.544c0.494-0.18,0.995-0.362,1.496-0.545
					c0.505-0.171,1.01-0.343,1.507-0.512c0.493-0.179,0.999-0.304,1.46-0.494c0.936-0.348,1.817-0.652,2.582-0.897
					c0.762-0.253,1.416-0.424,1.865-0.563c0.455-0.13,0.721-0.191,0.721-0.191s-0.229,0.143-0.641,0.369
					c-0.416,0.218-0.999,0.556-1.723,0.914c-0.72,0.366-1.57,0.774-2.49,1.191c-0.92,0.419-1.941,0.749-2.948,1.125
					c-1.019,0.343-2.029,0.705-2.999,0.981c-0.971,0.27-1.883,0.503-2.669,0.685C56.43,91.523,55.356,91.658,55.356,91.658z"/>
			</g>
		</g>
		<path fill="#FFCC81" d="M82.912,88.052c0,0,2.033,1.914,2.367,2.201c1.021,0.878,1.365,3.534,3.135,5.594
			c1.373,1.6,2.159,2.482,2.636,2.206c0.666-0.387-1.455-3.653-1.236-3.839c0.219-0.187,4.444,2.611,5.911,4.215
			c1.469,1.602,1.867-0.944,0.74-3.104c-1.614-3.094-4.079-4.831-5.093-5.968c-1.013-1.136-3.304-2.992-3.304-2.992l-2.19-1.932
			L82.912,88.052z"/>
		<path fill="#FFCC81" d="M86.255,95.017c0,0,2.223,1.688,2.562,1.971c1.035,0.862,3.711,0.764,6.035,2.168
			c1.805,1.09,2.804,1.72,2.61,2.234c-0.271,0.721-3.843-0.83-3.99-0.584s5.024,1.674,6.848,2.856
			c1.822,1.183-1.299,1.825-3.731,1.699c-2.883-0.147-6.36-1.405-7.648-2.216c-1.288-0.812-3.498-2.765-3.498-2.765l-2.266-1.842
			L86.255,95.017z"/>
		<g>
			<g>
				<path fill="#72BFE3" d="M59.248,31.266c3.253,1.573,11.038,26.646,12.928,29.256c2.021,2.789,18.204,27.791,18.204,27.791
					s-1.43,3.004-4.304,4.367c0,0-18.151-18.966-21.708-23.837c-4.381-6.001-18.222-27.171-18.222-27.171
					S47.188,25.436,59.248,31.266z"/>
				<path opacity="0.1" fill="#1C1C1B" d="M59.248,31.266c3.253,1.573,11.038,26.646,12.928,29.256
					c2.021,2.789,18.204,27.791,18.204,27.791s-1.43,3.004-4.304,4.367c0,0-18.151-18.966-21.708-23.837
					c-4.381-6.001-18.222-27.171-18.222-27.171S47.188,25.436,59.248,31.266z"/>
			</g>
			<path fill="#72BFE3" d="M53.864,27.6c-3.511-0.761-6.627-0.69-9.686,1.083s-8.233,13.549-9.176,23.143
				C34.06,61.419,31.893,80,34.111,81.124c2.219,1.124,24.176,2.794,29.887-7.147c5.711-9.942-1.379-34.006-2.005-36.992
				C61.366,33.999,59.228,28.762,53.864,27.6z"/>
			<path fill="#72BFE3" d="M55.284,41.073c3.439,1.663,11.344,28.438,13.669,30.931c1.971,2.112,20.057,24.031,20.057,24.031
				s-1.513,3.176-4.551,4.617c0,0-20.001-14.701-23.762-19.852c-4.631-6.344-19.264-28.726-19.264-28.726
				S42.535,34.91,55.284,41.073z"/>
			<g opacity="0.1">
				<path fill="#1C1C1B" d="M59.094,78.543c0,0-0.312-0.424-0.858-1.167c-0.528-0.754-1.317-1.809-2.202-3.113
					c-0.884-1.307-1.942-2.813-3.028-4.457c-1.095-1.64-2.23-3.408-3.369-5.175c-1.121-1.778-2.245-3.554-3.268-5.239
					c-1.034-1.678-1.95-3.274-2.76-4.627c-0.4-0.627-0.864-1.191-1.289-1.645c-0.216-0.229-0.422-0.441-0.636-0.609
					c-0.207-0.178-0.395-0.346-0.592-0.457c-0.191-0.123-0.361-0.233-0.51-0.329c-0.162-0.071-0.299-0.13-0.411-0.179
					c-0.227-0.099-0.348-0.151-0.348-0.151s0.127,0.035,0.365,0.1c0.121,0.033,0.27,0.074,0.444,0.123
					c0.167,0.068,0.35,0.167,0.56,0.271c0.217,0.094,0.427,0.245,0.66,0.405c0.241,0.151,0.477,0.345,0.725,0.558
					c0.499,0.428,1.022,0.933,1.507,1.612c0.884,1.306,1.944,2.811,3.028,4.457c1.095,1.639,2.229,3.408,3.368,5.175
					c1.121,1.778,2.243,3.555,3.267,5.239c1.032,1.679,1.95,3.275,2.76,4.628c0.809,1.354,1.432,2.515,1.892,3.312
					C58.842,78.081,59.094,78.543,59.094,78.543z"/>
			</g>
			<g opacity="0.1">
				<path fill="#1C1C1B" d="M56.4,42.219c0,0,0.203,0.403,0.559,1.108c0.336,0.713,0.854,1.717,1.408,2.948
					c0.553,1.232,1.228,2.658,1.897,4.207c0.679,1.545,1.37,3.207,2.062,4.868c0.674,1.669,1.351,3.336,1.951,4.914
					c0.613,1.572,1.132,3.062,1.604,4.327c0.471,1.266,0.807,2.344,1.067,3.088c0.242,0.752,0.38,1.182,0.38,1.182
					s-0.203-0.403-0.56-1.107c-0.336-0.714-0.854-1.717-1.408-2.948c-0.553-1.232-1.229-2.657-1.897-4.207
					c-0.68-1.544-1.368-3.207-2.062-4.868c-0.673-1.669-1.349-3.337-1.95-4.914c-0.611-1.573-1.131-3.062-1.603-4.327
					c-0.47-1.266-0.807-2.344-1.068-3.087C56.538,42.649,56.4,42.219,56.4,42.219z"/>
			</g>
			<g opacity="0.1">
				<path fill="#1C1C1B" d="M58.446,43.561c0,0,0.167,0.228,0.286,0.569c0.127,0.342,0.21,0.797,0.214,1.253
					c-0.003,0.456-0.085,0.911-0.212,1.253c-0.119,0.341-0.287,0.569-0.287,0.569s-0.168-0.228-0.287-0.569
					c-0.127-0.342-0.209-0.797-0.212-1.253c0.003-0.456,0.087-0.912,0.214-1.253C58.279,43.789,58.446,43.561,58.446,43.561z"/>
			</g>
		</g>
		<g>
			<path fill="#FFCC81" d="M72.039,2.844c-7.694-2.707-14.471,3.35-16.074,9.509c-2.049,7.873,1.831,19.162,8.835,20.248
				c4.999,0.774,9.979-5.481,12.04-11.302C80.053,12.218,78.238,5.025,72.039,2.844z"/>
			<path fill="#FFCC81" d="M59.533,24.876c0,0-2.137,5.842-2.142,7.377c-0.005,1.536,2.243,5.412,1.283,6.004
				s-7.266-7.278-7.048-9.223c0.218-1.946,3.837-11.818,3.837-11.818L59.533,24.876z"/>
			<path fill="#1C1C1B" d="M59.17,1.63c-1.277,0.898-4.293-0.006-6.042,3.986c-1.75,3.994-1.588,14.688,0.193,16.015
				c1.781,1.327,1.483-7.229,4.076-8.37c2.593-1.14,1.346,5.618,2.845,5.528c1.499-0.09,3.115-9.255,5.508-9.148
				C68.644,9.77,78.401,19,83.065,14.111c4.882-5.117-0.711-10.233-7.822-11.174C65.749,1.68,64.559-2.161,59.17,1.63z"/>
			<path fill="#FFCC81" d="M59.823,19.146c-0.627,1.804-2.384,2.792-4.115,1.693c-1.919-1.219-3.3-6.265-0.234-7.86
				C58.108,11.608,61.422,14.542,59.823,19.146z"/>
		</g>
	</g>
</g>
</svg>
