<?xml version="1.0" encoding="utf-8"?>
<!-- Generator: Adobe Illustrator 25.1.0, SVG Export Plug-In . SVG Version: 6.00 Build 0)  -->
<svg version="1.1" xmlns="http://www.w3.org/2000/svg" xmlns:xlink="http://www.w3.org/1999/xlink" x="0px" y="0px"
	 viewBox="0 0 100 45" style="enable-background:new 0 0 100 45;" xml:space="preserve">
<style type="text/css">
	.st0{fill:#A14D98;}
	.st1{fill:#6469AF;}
	.st2{fill:#4A93D0;}
	.st3{fill:#2F67AF;}
	.st4{fill:url(#SVGID_1_);}
	.st5{fill:url(#SVGID_2_);}
	.st6{fill:url(#SVGID_3_);}
	.st7{fill:url(#SVGID_4_);}
	.st8{fill:url(#SVGID_5_);}
	.st9{fill:url(#SVGID_6_);}
	.st10{fill:url(#SVGID_7_);}
	.st11{fill:url(#SVGID_8_);}
	.st12{fill:url(#SVGID_9_);}
	.st13{fill:url(#SVGID_10_);}
	.st14{fill:url(#SVGID_11_);}
	.st15{fill:#FFFFFF;}
	.st16{fill:#D7256D;}
	.st17{fill:url(#SVGID_12_);}
	.st18{fill:url(#SVGID_13_);}
	.st19{fill:url(#SVGID_14_);}
	.st20{fill:url(#SVGID_15_);}
	.st21{fill:url(#SVGID_16_);}
	.st22{fill:url(#SVGID_17_);}
	.st23{fill:url(#SVGID_18_);}
	.st24{fill:url(#SVGID_19_);}
	.st25{fill:url(#SVGID_20_);}
</style>
<g id="Layer_1">
</g>
<g id="Layer_2">
</g>
<g id="Layer_3">
</g>
<g id="Layer_4">
	<g>
		<linearGradient id="SVGID_1_" gradientUnits="userSpaceOnUse" x1="2.1369" y1="22.7693" x2="10.7004" y2="22.7693">
			<stop  offset="2.717173e-07" style="stop-color:#DC226A"/>
			<stop  offset="1" style="stop-color:#38AEE4"/>
		</linearGradient>
		<path class="st4" d="M8.25,22.42c1.13-0.6,1.69-1.54,1.69-2.81c0-1.12-0.45-1.99-1.35-2.61c-0.9-0.62-2.23-0.93-4-0.93H2.14v13.39
			h3.21c1.79,0,3.13-0.33,4.02-1c0.89-0.67,1.33-1.58,1.33-2.72C10.7,24.11,9.88,23.01,8.25,22.42z M9.7,27.28
			c-0.27,0.43-0.64,0.76-1.12,0.99c-0.48,0.22-0.98,0.38-1.5,0.48c-0.52,0.1-1.1,0.15-1.73,0.15H2.74V16.65h1.86
			c3.16,0,4.74,0.99,4.74,2.96c0,1.06-0.46,1.83-1.39,2.32l-1.13,0.62l1.21,0.42c1.38,0.49,2.07,1.41,2.07,2.77
			C10.1,26.34,9.97,26.85,9.7,27.28z"/>
		<linearGradient id="SVGID_2_" gradientUnits="userSpaceOnUse" x1="22.9582" y1="23.8244" x2="33.0158" y2="23.8244">
			<stop  offset="2.717173e-07" style="stop-color:#DC226A"/>
			<stop  offset="1" style="stop-color:#38AEE4"/>
		</linearGradient>
		<polygon class="st5" points="22.96,29.47 23.6,29.47 27.99,19.65 32.11,28.9 25.55,28.9 25.55,29.47 33.02,29.47 27.99,18.18 		
			"/>
		<linearGradient id="SVGID_3_" gradientUnits="userSpaceOnUse" x1="32.5041" y1="23.9177" x2="41.5598" y2="23.9177">
			<stop  offset="2.717173e-07" style="stop-color:#DC226A"/>
			<stop  offset="1" style="stop-color:#38AEE4"/>
		</linearGradient>
		<polygon class="st6" points="32.5,18.95 36.73,18.95 36.73,29.47 37.33,29.47 37.33,18.95 41.56,18.95 41.56,18.37 32.5,18.37 		
			"/>
		<linearGradient id="SVGID_4_" gradientUnits="userSpaceOnUse" x1="43.219" y1="23.9319" x2="51.3225" y2="23.9319">
			<stop  offset="2.717173e-07" style="stop-color:#DC226A"/>
			<stop  offset="1" style="stop-color:#38AEE4"/>
		</linearGradient>
		<path class="st7" d="M48.7,23.98c-0.73-0.21-1.46-0.41-2.19-0.6c-0.73-0.19-1.35-0.47-1.86-0.83c-0.51-0.36-0.76-0.85-0.76-1.46
			c0-1.58,1.04-2.37,3.13-2.37c1.39,0,2.41,0.3,3.05,0.9l0.4-0.42c-0.69-0.7-1.87-1.05-3.54-1.05c-1.06,0-1.94,0.24-2.63,0.71
			c-0.69,0.48-1.04,1.21-1.04,2.19c0,0.73,0.25,1.32,0.77,1.76c0.51,0.44,1.13,0.77,1.86,0.98c0.73,0.21,1.46,0.42,2.19,0.61
			c0.73,0.2,1.35,0.49,1.86,0.89s0.77,0.91,0.77,1.55c0,0.62-0.33,1.15-0.99,1.61c-0.66,0.46-1.64,0.69-2.95,0.69
			c-1.43,0-2.48-0.3-3.16-0.9l-0.4,0.42c0.33,0.34,0.85,0.6,1.54,0.78c0.69,0.18,1.39,0.27,2.11,0.27c1.45,0,2.55-0.26,3.31-0.79
			s1.14-1.23,1.14-2.11c0-0.75-0.25-1.35-0.76-1.82S49.43,24.19,48.7,23.98z"/>
		<linearGradient id="SVGID_5_" gradientUnits="userSpaceOnUse" x1="52.4025" y1="22.7785" x2="67.8713" y2="22.7785">
			<stop  offset="2.717173e-07" style="stop-color:#DC226A"/>
			<stop  offset="1" style="stop-color:#38AEE4"/>
		</linearGradient>
		<polygon class="st8" points="54.42,16.07 54.42,16.65 67.01,16.65 62.73,27.8 60.12,21 57.53,27.8 53.04,16.07 52.4,16.07 
			57.53,29.48 60.12,22.68 62.73,29.48 67.87,16.07 		"/>
		<linearGradient id="SVGID_6_" gradientUnits="userSpaceOnUse" x1="67.4397" y1="23.8244" x2="77.4973" y2="23.8244">
			<stop  offset="2.717173e-07" style="stop-color:#DC226A"/>
			<stop  offset="1" style="stop-color:#38AEE4"/>
		</linearGradient>
		<polygon class="st9" points="67.44,29.47 68.08,29.47 72.47,19.65 76.59,28.9 70.03,28.9 70.03,29.47 77.5,29.47 72.47,18.18 		
			"/>
		<linearGradient id="SVGID_7_" gradientUnits="userSpaceOnUse" x1="77.4279" y1="24.011" x2="87.4856" y2="24.011">
			<stop  offset="2.717173e-07" style="stop-color:#DC226A"/>
			<stop  offset="1" style="stop-color:#38AEE4"/>
		</linearGradient>
		<polygon class="st10" points="82.46,28.19 78.07,18.37 77.43,18.37 82.46,29.65 87.49,18.37 86.84,18.37 		"/>
		<linearGradient id="SVGID_8_" gradientUnits="userSpaceOnUse" x1="89.2434" y1="23.9177" x2="97.8161" y2="23.9177">
			<stop  offset="2.717173e-07" style="stop-color:#DC226A"/>
			<stop  offset="1" style="stop-color:#38AEE4"/>
		</linearGradient>
		<path class="st11" d="M93.94,29.08c-0.67,0-1.24-0.07-1.69-0.2s-0.87-0.38-1.26-0.75c-0.38-0.36-0.67-0.89-0.85-1.59
			s-0.28-1.57-0.28-2.63s0.09-1.93,0.28-2.63s0.47-1.22,0.85-1.59c0.38-0.36,0.8-0.61,1.26-0.75c0.46-0.13,1.02-0.2,1.69-0.2
			c1.52,0,2.57,0.37,3.16,1.12l-5.11,4.36l0.36,0.28l5.47-4.67l-0.27-0.35l0,0c-0.73-0.87-1.94-1.31-3.61-1.31
			c-1.68,0-2.88,0.45-3.6,1.35c-0.73,0.9-1.09,2.36-1.09,4.38c0,2.02,0.36,3.48,1.09,4.38c0.73,0.9,1.93,1.35,3.6,1.35
			c1.67,0,2.88-0.44,3.62-1.32l-0.44-0.38C96.52,28.71,95.46,29.08,93.94,29.08z"/>
		<linearGradient id="SVGID_9_" gradientUnits="userSpaceOnUse" x1="13.1857" y1="23.9177" x2="21.7542" y2="23.9177">
			<stop  offset="2.717173e-07" style="stop-color:#DC226A"/>
			<stop  offset="1" style="stop-color:#38AEE4"/>
		</linearGradient>
		<path class="st12" d="M16.28,24.51l5.47-4.67l-0.26-0.34l0,0c-0.73-0.88-1.94-1.32-3.61-1.32c-1.68,0-2.88,0.45-3.6,1.35
			c-0.73,0.9-1.09,2.36-1.09,4.38c0,2.02,0.36,3.48,1.09,4.38c0.73,0.9,1.93,1.35,3.6,1.35c1.67,0,2.88-0.44,3.62-1.32l-0.44-0.38
			c-0.59,0.75-1.65,1.13-3.17,1.13c-0.67,0-1.24-0.07-1.69-0.2s-0.87-0.38-1.26-0.75c-0.38-0.36-0.67-0.89-0.85-1.59
			s-0.28-1.57-0.28-2.63s0.09-1.93,0.28-2.63s0.47-1.22,0.85-1.59c0.38-0.36,0.8-0.61,1.26-0.75c0.46-0.13,1.02-0.2,1.69-0.2
			c1.52,0,2.57,0.37,3.16,1.12l-5.12,4.36L16.28,24.51z"/>
	</g>
</g>
<g id="Layer_5">
</g>
</svg>
